<svg version="1.2" xmlns="http://www.w3.org/2000/svg" viewBox="0 0 24 24" width="24" height="24">
	<title>apple-fill-svg</title>
	<style>
		.s0 { fill: #FFFFFF } 
	</style>
	<path id="Layer" class="s0" d="m11.7 7.2c-0.9 0-2.3-1-3.7-0.9-1.9 0-3.6 1.1-4.6 2.7-1.9 3.4-0.5 8.5 1.4 11.2 1 1.4 2.1 2.9 3.5 2.8 1.4 0 2-0.9 3.7-0.9 1.7 0 2.1 0.9 3.6 0.9 1.5 0 2.5-1.4 3.4-2.7 1.1-1.6 1.5-3.1 1.6-3.2-0.1 0-3-1.1-3-4.5 0-2.8 2.3-4.1 2.4-4.2-1.3-1.9-3.4-2.1-4.1-2.2-1.8-0.1-3.4 1-4.2 1zm3.1-2.8c0.8-0.9 1.3-2.3 1.1-3.6-1.1 0.1-2.4 0.8-3.2 1.7-0.7 0.9-1.4 2.2-1.2 3.5 1.2 0.1 2.5-0.7 3.3-1.6z"/>
</svg>