<svg version="1.2" xmlns="http://www.w3.org/2000/svg" viewBox="0 0 24 24" width="24" height="24">
	<title>instagram-fill-svg</title>
	<style>
		.s0 { fill: #FFFFFF } 
	</style>
	<path id="Layer" fill-rule="evenodd" class="s0" d="m13 2c1.2 0 1.7 0 2.2 0h0.2q0.3 0 0.7 0.1c1.1 0 1.8 0.2 2.5 0.4 0.6 0.3 1.2 0.6 1.7 1.2 0.6 0.5 0.9 1.1 1.2 1.8 0.2 0.6 0.4 1.3 0.4 2.4q0.1 0.4 0.1 0.7v0.2c0 0.5 0 1 0 2.2v0.7q0 0.2 0 0.3v0.3 0.7c0 1.2 0 1.7 0 2.2v0.2q0 0.3-0.1 0.7c0 1.1-0.2 1.8-0.4 2.5-0.3 0.6-0.6 1.2-1.2 1.7-0.5 0.6-1.1 0.9-1.7 1.2-0.7 0.2-1.4 0.4-2.5 0.4q-0.4 0.1-0.7 0.1h-0.2c-0.5 0-1 0-2.2 0h-0.7q-0.2 0-0.3 0h-0.3-0.7c-1.2 0-1.7 0-2.2 0h-0.2q-0.3 0-0.7-0.1c-1.1 0-1.8-0.2-2.4-0.4-0.7-0.3-1.3-0.6-1.8-1.2-0.6-0.5-0.9-1.1-1.2-1.7-0.2-0.7-0.4-1.4-0.4-2.5q-0.1-0.4-0.1-0.7v-0.2c0-0.5 0-1 0-2.2v-2c0-1.2 0-1.7 0-2.2v-0.2q0-0.3 0.1-0.7c0-1.1 0.2-1.8 0.4-2.4 0.3-0.7 0.6-1.3 1.2-1.8 0.5-0.6 1.1-0.9 1.8-1.2 0.6-0.2 1.3-0.4 2.4-0.4q0.4-0.1 0.7-0.1h0.2c0.5 0 1 0 2.2 0zm-1.1 5c-2.7 0-5 2.2-5 5 0 2.8 2.3 5 5 5 2.8 0 5-2.2 5-5 0-2.8-2.2-5-5-5zm0 2c1.7 0 3 1.3 3 3 0 1.7-1.3 3-3 3-1.6 0-3-1.3-3-3 0-1.7 1.4-3 3-3zm5.3-3.5c-0.7 0-1.3 0.6-1.3 1.2 0 0.7 0.6 1.3 1.3 1.3 0.7 0 1.2-0.6 1.2-1.3 0-0.6-0.5-1.2-1.2-1.2z"/>
</svg>